<svg width="32" height="32" viewBox="0 0 32 32" fill="none" xmlns="http://www.w3.org/2000/svg">
  <!-- Background circle with gradient -->
  <circle cx="16" cy="16" r="16" fill="url(#gradient1)"/>
  
  <!-- Letter G -->
  <path d="M8 12C8 8.68629 10.6863 6 14 6H18C21.3137 6 24 8.68629 24 12V20C24 23.3137 21.3137 26 18 26H14C10.6863 26 8 23.3137 8 20V12Z" fill="white" stroke="url(#gradient2)" stroke-width="1.5"/>
  
  <!-- G opening -->
  <path d="M18 12H14V20H18" stroke="url(#gradient2)" stroke-width="1.5" fill="none"/>
  
  <!-- SMS/Message icon overlay -->
  <rect x="18" y="18" width="8" height="6" rx="1" fill="url(#gradient3)"/>
  <circle cx="20" cy="21" r="0.8" fill="white"/>
  <circle cx="22" cy="21" r="0.8" fill="white"/>
  <circle cx="24" cy="21" r="0.8" fill="white"/>
  
  <!-- Gradients -->
  <defs>
    <linearGradient id="gradient1" x1="0" y1="0" x2="32" y2="32" gradientUnits="userSpaceOnUse">
      <stop stop-color="#667eea"/>
      <stop offset="1" stop-color="#764ba2"/>
    </linearGradient>
    <linearGradient id="gradient2" x1="8" y1="6" x2="24" y2="26" gradientUnits="userSpaceOnUse">
      <stop stop-color="#4facfe"/>
      <stop offset="1" stop-color="#00f2fe"/>
    </linearGradient>
    <linearGradient id="gradient3" x1="18" y1="18" x2="26" y2="24" gradientUnits="userSpaceOnUse">
      <stop stop-color="#ff6b6b"/>
      <stop offset="1" stop-color="#ee5a24"/>
    </linearGradient>
  </defs>
</svg>
